<svg aria-hidden="true" style="position: absolute; width: 0; height: 0; overflow: hidden;" version="1.1" xmlns="http://www.w3.org/2000/svg" xmlns:xlink="http://www.w3.org/1999/xlink">
<defs>
<symbol id="email-black" viewBox="0 0 33 32">
<path d="M25.043 4.174h-16.696c-1.148 0-2.077 0.939-2.077 2.087l-0.010 12.522c0 1.148 0.939 2.087 2.087 2.087h16.696c1.148 0 2.087-0.939 2.087-2.087v-12.522c0-1.148-0.939-2.087-2.087-2.087zM24.626 8.609l-7.377 4.612c-0.334 0.209-0.772 0.209-1.106 0l-7.377-4.612c-0.261-0.167-0.417-0.449-0.417-0.751 0-0.699 0.762-1.117 1.357-0.751l6.991 4.372 6.991-4.372c0.595-0.365 1.357 0.052 1.357 0.751 0 0.303-0.157 0.584-0.417 0.751z"></path>
</symbol>
<symbol id="phone-black" viewBox="0 0 32 32">
<path d="M24.882 19.773l-3.268-0.373c-0.785-0.090-1.557 0.18-2.11 0.733l-2.367 2.367c-3.641-1.853-6.626-4.825-8.478-8.478l2.38-2.38c0.553-0.553 0.823-1.325 0.733-2.11l-0.373-3.242c-0.154-1.299-1.248-2.277-2.56-2.277h-2.226c-1.454 0-2.663 1.209-2.573 2.663 0.682 10.987 9.469 19.761 20.443 20.443 1.454 0.090 2.663-1.119 2.663-2.573v-2.226c0.013-1.3-0.965-2.393-2.264-2.547z"></path>
</symbol>
<symbol id="person-black" viewBox="0 0 32 32">
<path d="M16 16c2.947 0 5.333-2.387 5.333-5.333s-2.387-5.333-5.333-5.333c-2.947 0-5.333 2.387-5.333 5.333s2.387 5.333 5.333 5.333zM16 18.667c-3.56 0-10.667 1.787-10.667 5.333v1.333c0 0.733 0.6 1.333 1.333 1.333h18.667c0.733 0 1.333-0.6 1.333-1.333v-1.333c0-3.547-7.107-5.333-10.667-5.333z"></path>
</symbol>
</defs>
</svg>
